<?xml version="1.0" standalone="no"?>
<!DOCTYPE svg PUBLIC "-//W3C//DTD SVG 20010904//EN"
 "http://www.w3.org/TR/2001/REC-SVG-20010904/DTD/svg10.dtd">
<svg version="1.0" xmlns="http://www.w3.org/2000/svg"
 width="700.000000pt" height="700.000000pt" viewBox="0 0 700.000000 700.000000"
 preserveAspectRatio="xMidYMid meet">
<metadata>
Created by potrace 1.11, written by Peter Selinger 2001-2013
</metadata>
<g transform="translate(0.000000,700.000000) scale(0.100000,-0.100000)"
fill="#000000" stroke="none">
<path d="M3870 6984 c-46 -16 -101 -53 -133 -89 -37 -41 -69 -124 -70 -183 -1
-51 2 -80 18 -195 2 -17 7 -54 10 -82 3 -27 8 -63 10 -80 5 -38 15 -119 20
-165 4 -32 10 -79 20 -155 3 -16 7 -51 10 -77 3 -26 7 -62 9 -80 3 -18 10 -76
16 -128 6 -52 13 -111 16 -130 3 -19 7 -51 9 -70 3 -19 10 -72 15 -118 6 -46
8 -91 5 -102 -3 -10 -8 -27 -10 -37 -2 -10 -24 -94 -50 -188 -25 -93 -57 -213
-71 -265 -156 -588 -155 -584 -188 -620 -18 -20 -80 -106 -138 -191 l-106
-154 -89 -48 c-48 -27 -108 -59 -133 -73 -25 -14 -79 -43 -120 -66 -41 -23
-95 -52 -120 -66 -25 -14 -72 -39 -105 -57 -121 -66 -153 -83 -308 -169 l-158
-88 -67 7 c-37 3 -80 8 -97 10 -32 5 -85 11 -175 20 -30 4 -69 8 -87 10 -44 6
-197 23 -268 30 -33 3 -71 8 -85 10 -14 2 -47 7 -75 10 -27 3 -68 7 -90 9 -22
3 -67 8 -100 11 -33 4 -71 8 -85 11 -14 2 -66 7 -116 10 -73 5 -103 3 -148
-11 -70 -22 -138 -80 -174 -149 -37 -70 -39 -188 -4 -258 50 -102 136 -159
262 -174 19 -2 54 -6 78 -9 23 -3 63 -7 90 -10 26 -3 63 -8 82 -10 19 -3 62
-8 95 -10 33 -3 74 -7 90 -10 17 -2 55 -7 85 -10 30 -3 71 -7 90 -10 19 -3 60
-7 90 -10 30 -3 73 -8 95 -11 74 -9 110 -13 165 -19 30 -3 69 -8 85 -10 17 -2
62 -7 100 -10 39 -4 95 -11 125 -15 89 -13 168 -3 235 29 33 15 172 90 308
165 137 75 253 136 258 136 5 0 9 5 9 10 0 6 4 10 9 10 4 0 40 18 80 39 l71
39 38 -31 c21 -18 125 -90 231 -162 105 -71 238 -162 294 -201 56 -38 228
-156 383 -261 l280 -192 -62 -353 c-35 -194 -77 -427 -93 -517 -35 -190 -34
-208 9 -466 18 -104 33 -199 35 -210 2 -11 8 -54 15 -95 7 -41 14 -87 16 -102
16 -118 57 -341 70 -379 17 -53 75 -118 130 -144 37 -18 143 -26 184 -13 60
18 118 68 151 131 35 66 35 108 3 297 -6 34 -22 137 -30 184 -3 21 -8 48 -10
60 -2 11 -7 41 -10 66 -3 25 -8 54 -10 65 -3 11 -7 36 -10 55 -3 19 -7 46 -10
60 -2 14 -14 86 -25 160 l-21 135 31 170 c17 94 47 258 67 365 19 107 36 204
38 215 3 11 12 63 22 115 l17 95 136 200 c155 230 285 419 389 569 l73 105 59
278 c32 153 61 289 64 303 12 62 35 171 49 235 9 39 18 84 20 100 3 17 14 73
26 125 36 166 39 199 26 262 -4 18 -41 173 -81 343 -77 318 -88 365 -124 520
-66 282 -79 312 -163 369 -47 33 -68 40 -116 44 -106 8 -197 -40 -246 -129
-42 -78 -41 -134 5 -320 21 -85 48 -197 60 -249 12 -52 38 -160 57 -240 19
-80 37 -155 39 -167 2 -12 9 -34 14 -48 5 -14 8 -25 6 -25 -2 0 7 -39 18 -86
l22 -85 -23 -92 c-13 -51 -37 -150 -53 -222 -73 -320 -82 -361 -89 -372 -4 -8
-83 40 -241 148 -439 301 -515 353 -590 403 -41 27 -77 51 -79 53 -6 4 16 92
84 343 64 236 105 391 111 415 2 11 22 83 44 160 35 127 38 149 35 235 -2 52
-8 131 -14 175 -6 44 -14 100 -16 125 -3 25 -10 77 -15 115 -5 39 -12 90 -15
115 -3 25 -7 61 -10 80 -3 19 -7 55 -10 80 -3 25 -7 61 -10 80 -2 19 -7 58
-10 85 -3 28 -8 61 -10 75 -2 14 -6 50 -9 80 -3 30 -8 66 -10 80 -3 14 -7 50
-10 80 -13 118 -17 147 -27 202 -14 79 -31 117 -79 170 -71 80 -210 117 -310
82z"/>
<path d="M5737 2638 c-104 -15 -218 -66 -298 -133 -33 -27 -101 -112 -126
-156 -100 -176 -88 -415 30 -589 217 -319 686 -330 919 -20 78 105 111 208
110 350 -1 208 -120 398 -313 495 -90 46 -222 68 -322 53z"/>
</g>
</svg>
